<svg width="94" height="24" viewBox="0 0 94 24" fill="none" xmlns="http://www.w3.org/2000/svg">
<path d="M0 2.93029C0 1.34106 1.28832 0.0527344 2.87755 0.0527344C4.46678 0.0527344 5.7551 1.34106 5.7551 2.93029V20.1956C5.7551 21.7848 4.46678 23.0731 2.87755 23.0731C1.28832 23.0731 0 21.7848 0 20.1956V2.93029Z" fill="black"/>
<path d="M1.07555 5.19776C-0.0482004 4.07401 -0.0482014 2.25204 1.07555 1.12829C2.19931 0.00453752 4.02127 0.00453729 5.14502 1.12829L13.4394 9.42264C14.5631 10.5464 14.5631 12.3684 13.4394 13.4921C12.3156 14.6159 10.4937 14.6159 9.3699 13.4921L1.07555 5.19776Z" fill="black"/>
<path d="M17.971 1.12829C19.0948 0.00453454 20.9167 0.00453294 22.0405 1.12829C23.1643 2.25204 23.1643 4.074 22.0405 5.19776L13.584 13.6543C12.4602 14.7781 10.6382 14.7781 9.51448 13.6543C8.39072 12.5306 8.39072 10.7086 9.51448 9.58484L17.971 1.12829Z" fill="black"/>
<path d="M17.2653 2.93029C17.2653 1.34106 18.5536 0.0527344 20.1429 0.0527344C21.7321 0.0527344 23.0204 1.34106 23.0204 2.93029V20.1956C23.0204 21.7848 21.7321 23.0731 20.1429 23.0731C18.5536 23.0731 17.2653 21.7848 17.2653 20.1956V2.93029Z" fill="black"/>
<rect y="0.000148773" width="5.7551" height="23.0204" rx="2.87755" fill="black"/>
<path d="M0.853073 4.97222C-0.284358 3.83479 -0.284357 1.99065 0.853073 0.853222C1.9905 -0.284209 3.83464 -0.284209 4.97207 0.853222L13.5347 9.41583C14.6721 10.5533 14.6721 12.3974 13.5347 13.5348C12.3973 14.6723 10.5531 14.6723 9.41568 13.5348L0.853073 4.97222Z" fill="black"/>
<path d="M22.1676 4.97079C23.3047 3.83369 23.3047 1.99008 22.1676 0.852976C21.0305 -0.284127 19.1869 -0.284127 18.0498 0.852976L9.48548 9.41726C8.34838 10.5544 8.34838 12.398 9.48548 13.5351C10.6226 14.6722 12.4662 14.6722 13.6033 13.5351L22.1676 4.97079Z" fill="black"/>
<rect x="17.2653" y="0.000148773" width="5.7551" height="23.0204" rx="2.87755" fill="black"/>
<path d="M50.1938 4.48441C49.4408 2.93902 50.0784 1.07347 51.6179 0.317599C53.1574 -0.438275 55.0158 0.201757 55.7687 1.74715L63.949 18.5362C64.702 20.0816 64.0644 21.9472 62.525 22.703C60.9855 23.4589 59.1271 22.8189 58.3741 21.2735L50.1938 4.48441Z" fill="black"/>
<path d="M72.5817 4.48441C73.3347 2.93902 72.6971 1.07347 71.1576 0.317599C69.6182 -0.438275 67.7598 0.201757 67.0068 1.74715L58.8265 18.5362C58.0735 20.0816 58.7111 21.9472 60.2505 22.703C61.79 23.4589 63.6484 22.8189 64.4014 21.2735L72.5817 4.48441Z" fill="black"/>
<path d="M93.6837 18.5361C94.4367 20.0815 93.7991 21.9471 92.2597 22.7029C90.7202 23.4588 88.8618 22.8188 88.1088 21.2734L79.9285 4.48429C79.1755 2.9389 79.8131 1.07335 81.3526 0.317479C82.8921 -0.438395 84.7504 0.201637 85.5034 1.74703L93.6837 18.5361Z" fill="black"/>
<path d="M71.2959 18.5361C70.5429 20.0815 71.1805 21.9471 72.7199 22.7029C74.2594 23.4588 76.1178 22.8188 76.8708 21.2734L85.0511 4.48429C85.8041 2.9389 85.1665 1.07335 83.627 0.31748C82.0875 -0.438394 80.2291 0.201637 79.4762 1.74703L71.2959 18.5361Z" fill="black"/>
<path fill-rule="evenodd" clip-rule="evenodd" d="M37.4082 23.0731C43.7651 23.0731 48.9184 17.9198 48.9184 11.5629C48.9184 5.20603 43.7651 0.0527344 37.4082 0.0527344C31.0512 0.0527344 25.898 5.20603 25.898 11.5629C25.898 17.9198 31.0512 23.0731 37.4082 23.0731ZM37.4082 17.318C40.5866 17.318 43.1633 14.7414 43.1633 11.5629C43.1633 8.38448 40.5866 5.80784 37.4082 5.80784C34.2297 5.80784 31.6531 8.38448 31.6531 11.5629C31.6531 14.7414 34.2297 17.318 37.4082 17.318Z" fill="black"/>
</svg>
